<svg width="427" height="184" viewBox="0 0 427 184" fill="none" xmlns="http://www.w3.org/2000/svg">
<path d="M42.6073 205.614C45.0648 221.867 52.8803 236.808 64.8071 248.05C76.7295 259.294 92.0766 266.195 108.4 267.646C105.604 289.527 112.729 311.478 127.813 327.465C142.897 343.449 164.353 351.781 186.271 350.167C208.19 348.55 228.263 337.161 240.968 319.128C258.454 332.449 280.995 337.176 302.386 332.002C323.775 326.832 341.753 312.312 351.372 292.442C360.985 272.573 361.226 249.447 352.02 229.444C372.329 220.898 387.774 203.667 394.092 182.499C400.406 161.333 396.929 138.472 384.62 120.215C372.306 101.961 352.459 90.2424 330.552 88.2954C333.349 66.4142 326.224 44.4634 311.14 28.476C296.056 12.4928 274.6 4.16065 252.682 5.774C230.763 7.39098 210.69 18.78 197.985 36.8131C180.511 23.4087 157.937 18.615 136.501 23.7536C115.06 28.8946 97.031 43.4293 87.3913 63.3334C77.7551 83.2389 77.5268 106.408 86.7769 126.437C71.6708 132.808 59.1134 144.071 51.1065 158.423C43.0965 172.774 40.1064 189.385 42.6068 205.614L42.6073 205.614ZM131.501 77.1624C136.229 71.4685 142.958 67.8204 150.284 66.9734C157.612 66.132 164.972 68.1548 170.83 72.6299L196.873 92.4363L196.877 92.4378C199.707 94.5784 203.288 95.4737 206.8 94.9226C210.314 94.3677 213.455 92.413 215.514 89.5002L233.995 63.202C237.063 58.7241 241.301 55.1832 246.244 52.9711C251.185 50.7532 256.636 49.9556 261.998 50.6564C269.455 51.7214 276.187 55.6878 280.737 61.7004C285.288 67.7179 287.291 75.2945 286.308 82.7954L282.163 115.383C281.713 118.921 282.712 122.484 284.93 125.264C287.149 128.041 290.396 129.798 293.933 130.13L326.518 133.091C333.86 133.742 340.657 137.217 345.497 142.784C350.335 148.354 352.838 155.588 352.483 162.98C352.121 168.551 350.2 173.907 346.935 178.439C343.669 182.966 339.199 186.479 334.036 188.569L304.581 200.849C301.309 202.245 298.739 204.905 297.449 208.225C296.159 211.546 296.262 215.244 297.735 218.478L310.954 247.394C313.353 252.42 314.28 258.03 313.632 263.574C312.986 269.122 310.789 274.371 307.292 278.725C302.565 284.419 295.836 288.067 288.51 288.914C281.182 289.755 273.821 287.733 267.964 283.257L241.921 263.451L241.917 263.45C239.087 261.309 235.506 260.414 231.994 260.965C228.48 261.52 225.339 263.474 223.28 266.387L204.799 292.685C201.731 297.163 197.492 300.704 192.55 302.916C187.609 305.134 182.158 305.932 176.795 305.231C169.338 304.166 162.607 300.199 158.057 294.187C153.506 288.169 151.503 280.593 152.485 273.092L156.631 240.504C157.081 236.966 156.082 233.404 153.864 230.623C151.644 227.846 148.398 226.09 144.86 225.758L112.276 222.796C104.933 222.145 98.1365 218.67 93.2971 213.103C88.459 207.533 85.9555 200.299 86.3106 192.907C86.6725 187.336 88.5936 181.98 91.8584 177.448C95.1253 172.921 99.5952 169.408 104.758 167.318L134.028 154.903C137.298 153.51 139.869 150.851 141.159 147.53C142.448 144.209 142.346 140.512 140.874 137.274L127.655 108.358C125.291 103.337 124.393 97.7388 125.063 92.2161C125.737 86.6909 127.95 81.4652 131.448 77.1415L131.501 77.1624Z" fill="#00AAFF"/>
<path d="M240.229 186.032C235.741 197.589 222.78 203.335 211.277 198.868C199.775 194.401 194.089 181.413 198.577 169.856C203.066 158.299 216.027 152.553 227.529 157.02C239.032 161.487 244.717 174.475 240.229 186.032Z" fill="#00AAFF"/>
</svg>
