<svg width="89" height="31" viewBox="0 0 89 31" fill="none" xmlns="http://www.w3.org/2000/svg">
<g clip-path="url(#clip0_9_552)">
<path d="M6.0527 -0.00186539L4.53697 4.05382H25.5401L27.0558 -0.00186539H6.0527ZM3.77956 6.08033L2.26384 10.1351H23.2669L24.7827 6.08033H3.77956ZM1.51006 12.1625L-0.00566101 16.2173H20.9974L22.5122 12.1625H1.51006Z" fill="#00AAFF"/>
<path d="M44.6453 17.763V17.8489C45.6052 18.1926 46.5225 18.7949 47.0029 19.181C48.4868 20.3847 49.1425 21.9746 49.1425 24.0374C49.1425 27.4341 47.309 29.8831 44.2966 30.6572C43.3793 30.915 42.4194 31.0009 40.6294 31.0009H31.5069V6.15837H39.5832C41.2424 6.15837 42.3767 6.24429 43.3802 6.50114C46.3054 7.27526 48.2262 9.25217 48.2262 12.3894C48.2262 14.066 47.615 15.4849 46.6115 16.43C46.1747 16.8596 45.5635 17.3759 44.6471 17.7621L44.6453 17.763ZM36.5699 20.3847V26.9177H40.0627C41.1098 26.9177 42.0707 26.8318 42.769 26.187C43.4674 25.5422 43.7726 24.7256 43.7726 23.6512C43.7726 22.8355 43.5537 22.0614 43.1178 21.5025C42.3758 20.5999 41.4586 20.3847 39.8874 20.3847H36.569H36.5699ZM36.5254 16.0863H39.3634C40.2362 16.0863 40.673 16.0863 41.1089 15.9579C42.2886 15.6134 43.0306 14.5833 43.0306 13.1644C43.0306 11.4886 42.245 10.757 41.1089 10.4142C40.6285 10.2849 40.149 10.2424 39.1882 10.2424H36.5254V16.0872V16.0863ZM56.7375 31.0018V10.3274H49.4477V6.15926H69.7043L68.2639 10.3274H61.8023V31.0018H56.7384H56.7375ZM71.2754 31.0018V6.15926H87.6904L86.2501 10.3274H76.2966V15.8295H80.357C83.6309 15.8295 85.3338 16.6036 86.5125 17.5912C87.4298 18.3653 89.0009 20.0836 89.0009 23.4803C89.0009 26.8327 87.3862 28.6803 86.0321 29.6263C84.461 30.6997 82.8018 31.0018 79.4398 31.0018H71.2763H71.2754ZM76.2957 26.8318H80.0937C81.534 26.8318 82.4067 26.4882 83.0179 25.7141C83.3231 25.3279 83.7599 24.6388 83.7599 23.3501C83.7599 22.0614 83.3231 21.1579 82.4503 20.5131C81.9272 20.127 81.2279 19.9126 80.0491 19.9126H76.2948V26.8318H76.2957Z" fill="#122790"/>
</g>
<defs>
<clipPath id="clip0_9_552">
<rect width="89" height="31" fill="white"/>
</clipPath>
</defs>
</svg>
