<?xml version="1.0" standalone="no"?>
<!DOCTYPE svg PUBLIC "-//W3C//DTD SVG 20010904//EN"
 "http://www.w3.org/TR/2001/REC-SVG-20010904/DTD/svg10.dtd">
<svg version="1.0" xmlns="http://www.w3.org/2000/svg"
 width="896.000000pt" height="896.000000pt" viewBox="0 0 896.000000 896.000000"
 preserveAspectRatio="xMidYMid meet">
<metadata>
Created by potrace 1.14, written by Peter Selinger 2001-2017
</metadata>
<g transform="translate(0.000000,896.000000) scale(0.100000,-0.100000)"
fill="#000000" stroke="none">
<path d="M1920 7154 c-11 -25 -20 -50 -20 -55 0 -5 -4 -17 -10 -27 -5 -9 -52
-134 -105 -277 -52 -143 -102 -276 -110 -295 -8 -19 -58 -152 -110 -294 -53
-143 -100 -267 -106 -278 -5 -10 -6 -19 -2 -20 4 -1 1517 -2 3361 -3 l3354 -2
9 26 c5 14 14 35 19 46 10 20 48 124 96 260 14 39 29 79 34 90 5 11 30 76 55
145 25 69 52 141 60 160 24 62 100 265 101 270 0 3 4 12 7 20 3 8 28 75 55
148 l50 132 -3359 0 -3360 0 -19 -46z"/>
<path d="M1210 5252 c-6 -2 -10 -8 -10 -14 0 -10 -83 -237 -112 -308 -5 -14
-25 -68 -44 -120 -19 -52 -38 -104 -43 -115 -5 -11 -19 -47 -31 -80 -11 -33
-24 -69 -29 -80 -5 -11 -14 -36 -21 -55 -7 -19 -19 -50 -27 -69 -8 -18 -17
-41 -18 -50 -2 -9 -4 -17 -5 -18 -2 -2 -3 -6 -5 -10 -1 -5 -6 -19 -12 -33 -6
-14 -25 -65 -43 -115 -18 -49 -38 -103 -45 -120 -32 -78 -37 -96 -31 -102 4
-4 1514 -7 3357 -8 l3350 0 20 45 c11 24 21 51 23 60 1 8 9 31 18 51 9 20 19
47 23 60 4 13 13 38 20 54 19 43 82 215 91 245 3 14 10 30 14 35 4 6 22 53 40
105 18 52 40 111 49 130 8 19 15 37 16 40 3 16 29 89 41 115 9 22 134 355 134
359 0 3 -6712 0 -6720 -2z"/>
<path d="M464 3253 c-14 -31 -34 -83 -46 -117 -11 -34 -26 -74 -33 -91 -7 -16
-45 -118 -85 -225 -39 -107 -82 -222 -95 -255 -13 -33 -33 -89 -46 -125 -12
-36 -25 -69 -29 -75 -4 -5 -13 -31 -21 -57 -7 -27 -17 -48 -21 -48 -4 0 -7 -3
-6 -7 4 -14 -47 -156 -73 -205 -5 -10 -9 -22 -9 -28 0 -7 1105 -9 3361 -7
l3360 2 60 160 c34 88 62 165 63 170 2 6 8 21 13 35 6 14 36 95 67 180 32 85
64 169 72 187 8 17 14 34 14 37 0 9 67 191 85 231 7 17 20 50 28 75 8 25 27
77 42 115 15 39 28 77 30 87 3 15 -229 16 -3352 16 l-3355 0 -24 -55z"/>
</g>
</svg>
